# xmcd
#
# Track frame offsets:
#	150
#	15790
#	30775
#	48097
#	67085
#	79497
#	92045
#	108322
#	121265
#	131570
#	145855
#	157625
#	169737
#	182467
#	194725
#
# Disc length: 2828
#
# Revision: 2
# Processed by: cddbd v1.5.1PL0 Copyright (c) Steve Scherf et al.
# Submitted via: EasyCDDAExtractor 6.5.0.1
# Normalized: r1:DSETVAR1
#
DISCID=b50b0a0f
DTITLE=Various Artist - Unforgettable Songs - CD1
DYEAR=1900
DGENRE=
TTITLE0=Nat King Cole - Unforgettable
TTITLE1=Engelbert Humperdinck - Release Me
TTITLE2=The Righteous Bros - You've Lost That Loving Feeling
TTITLE3=Ray Charles - I Can't Stop Loving You
TTITLE4=Tony Bennett - I Left My Heart In San Francisco
TTITLE5=Al Martino - Spanish Eyes
TTITLE6=Nina Simone - My Baby Just Cares For Me
TTITLE7=Percy Sledge - When A Man Loves A Woman
TTITLE8=Louis Armstrong - What A Wonderful World
TTITLE9=The Walker Bros - The Sun Ain't Gonna Shine Anymore
TTITLE10=The Platters - Only You
TTITLE11=Connie Francis - Everybody's Somebody's Fool
TTITLE12=Bobby Vinton - Blue Velvet
TTITLE13=Patsy Cline - Crazy
TTITLE14=Vera Lynn - I'll Be Seeing You
EXTD=
EXTT0=
EXTT1=
EXTT2=
EXTT3=
EXTT4=
EXTT5=
EXTT6=
EXTT7=
EXTT8=
EXTT9=
EXTT10=
EXTT11=
EXTT12=
EXTT13=
EXTT14=
PLAYORDER=
